<mxfile host="65bd71144e">
    <diagram id="NiMF8X2bzsThjfib5FMJ" name="Page-1">
        <mxGraphModel dx="980" dy="810" grid="1" gridSize="10" guides="1" tooltips="1" connect="1" arrows="1" fold="1" page="1" pageScale="1" pageWidth="2336" pageHeight="1654" math="0" shadow="0">
            <root>
                <mxCell id="0"/>
                <mxCell id="1" parent="0"/>
                <mxCell id="2" value="order" style="swimlane;childLayout=stackLayout;resizeParent=1;resizeParentMax=0;horizontal=0;startSize=20;horizontalStack=0;fillColor=#60a917;strokeColor=#2D7600;fontColor=#ffffff;fontSize=13;" vertex="1" parent="1">
                    <mxGeometry x="83" y="80" width="2170" height="900" as="geometry"/>
                </mxCell>
                <mxCell id="3" value="Customer" style="swimlane;startSize=20;horizontal=0;" vertex="1" parent="2">
                    <mxGeometry x="20" width="2150" height="360" as="geometry"/>
                </mxCell>
                <mxCell id="4" value="" style="edgeStyle=orthogonalEdgeStyle;rounded=0;orthogonalLoop=1;jettySize=auto;html=1;fontSize=13;" edge="1" parent="3" source="5" target="7">
                    <mxGeometry relative="1" as="geometry"/>
                </mxCell>
                <mxCell id="5" value="&lt;font style=&quot;font-size: 18px&quot;&gt;شروع&lt;/font&gt;" style="ellipse;whiteSpace=wrap;html=1;aspect=fixed;fontSize=13;fillColor=#0050ef;strokeColor=#001DBC;fontColor=#ffffff;" vertex="1" parent="3">
                    <mxGeometry x="57" y="100" width="80" height="80" as="geometry"/>
                </mxCell>
                <mxCell id="6" value="" style="edgeStyle=orthogonalEdgeStyle;rounded=0;orthogonalLoop=1;jettySize=auto;html=1;fontSize=13;" edge="1" parent="3" source="7" target="8">
                    <mxGeometry relative="1" as="geometry"/>
                </mxCell>
                <mxCell id="7" value="&lt;font style=&quot;font-size: 17px&quot;&gt;حساب من&lt;/font&gt;" style="whiteSpace=wrap;html=1;fontSize=13;fontColor=#ffffff;strokeColor=#2D7600;fillColor=#60a917;" vertex="1" parent="3">
                    <mxGeometry x="167" y="110" width="120" height="60" as="geometry"/>
                </mxCell>
                <mxCell id="50" style="edgeStyle=none;html=1;exitX=1;exitY=0.5;exitDx=0;exitDy=0;entryX=0;entryY=0.5;entryDx=0;entryDy=0;" edge="1" parent="3" source="8" target="18">
                    <mxGeometry relative="1" as="geometry"/>
                </mxCell>
                <mxCell id="8" value="&lt;font style=&quot;font-size: 16px&quot;&gt;امتیاز معرفی&amp;nbsp;&amp;nbsp;&lt;/font&gt;" style="whiteSpace=wrap;html=1;fontSize=13;fontColor=#ffffff;strokeColor=#2D7600;fillColor=#60a917;" vertex="1" parent="3">
                    <mxGeometry x="317" y="110" width="120" height="60" as="geometry"/>
                </mxCell>
                <mxCell id="55" style="edgeStyle=none;html=1;exitX=1;exitY=0.5;exitDx=0;exitDy=0;entryX=0;entryY=0.5;entryDx=0;entryDy=0;" edge="1" parent="3" source="18" target="51">
                    <mxGeometry relative="1" as="geometry"/>
                </mxCell>
                <mxCell id="18" value="ایجاد لینک معرف" style="whiteSpace=wrap;html=1;fontSize=13;fontColor=#ffffff;strokeColor=#2D7600;fillColor=#60a917;" vertex="1" parent="3">
                    <mxGeometry x="487" y="110" width="120" height="60" as="geometry"/>
                </mxCell>
                <mxCell id="44" value="&lt;font style=&quot;font-size: 23px&quot;&gt;پایان&lt;/font&gt;" style="ellipse;whiteSpace=wrap;html=1;fillColor=#0050ef;strokeColor=#001DBC;fontColor=#ffffff;" vertex="1" parent="3">
                    <mxGeometry x="1977" y="160" width="73" height="70" as="geometry"/>
                </mxCell>
                <mxCell id="54" value="" style="edgeStyle=none;html=1;" edge="1" parent="3" source="51" target="53">
                    <mxGeometry relative="1" as="geometry"/>
                </mxCell>
                <mxCell id="51" value="ارسال کد برای دیگران" style="whiteSpace=wrap;html=1;fontSize=13;fontColor=#ffffff;strokeColor=#2D7600;fillColor=#60a917;" vertex="1" parent="3">
                    <mxGeometry x="687" y="110" width="120" height="60" as="geometry"/>
                </mxCell>
                <mxCell id="61" style="edgeStyle=orthogonalEdgeStyle;html=1;exitX=0.5;exitY=0;exitDx=0;exitDy=0;entryX=0.5;entryY=0;entryDx=0;entryDy=0;" edge="1" parent="3" source="53" target="51">
                    <mxGeometry relative="1" as="geometry"/>
                </mxCell>
                <mxCell id="53" value="ثبت سفارش با لینک" style="rhombus;whiteSpace=wrap;html=1;fontSize=13;fontColor=#ffffff;strokeColor=#6F0000;fillColor=#a20025;" vertex="1" parent="3">
                    <mxGeometry x="907" y="95" width="93" height="90" as="geometry"/>
                </mxCell>
                <mxCell id="45" value="Postex" style="swimlane;startSize=20;horizontal=0;" vertex="1" parent="2">
                    <mxGeometry x="20" y="360" width="2150" height="270" as="geometry"/>
                </mxCell>
                <mxCell id="59" value="" style="edgeStyle=none;html=1;" edge="1" parent="45" source="56" target="58">
                    <mxGeometry relative="1" as="geometry"/>
                </mxCell>
                <mxCell id="56" value="بررسی لینک&amp;nbsp;" style="whiteSpace=wrap;html=1;fontSize=13;fontColor=#ffffff;strokeColor=#2D7600;fillColor=#60a917;" vertex="1" parent="45">
                    <mxGeometry x="893.5" y="160" width="120" height="60" as="geometry"/>
                </mxCell>
                <mxCell id="58" value="اعمال پورسانت برای معرف و شارژ کیف پول" style="whiteSpace=wrap;html=1;fontSize=13;fontColor=#ffffff;strokeColor=#2D7600;fillColor=#60a917;" vertex="1" parent="45">
                    <mxGeometry x="1093.5" y="160" width="120" height="60" as="geometry"/>
                </mxCell>
                <mxCell id="47" value="Vendor" style="swimlane;startSize=20;horizontal=0;" vertex="1" parent="2">
                    <mxGeometry x="20" y="630" width="2150" height="270" as="geometry"/>
                </mxCell>
                <mxCell id="57" value="" style="edgeStyle=none;html=1;" edge="1" parent="2" source="53" target="56">
                    <mxGeometry relative="1" as="geometry"/>
                </mxCell>
                <mxCell id="63" style="edgeStyle=orthogonalEdgeStyle;html=1;exitX=1;exitY=0.5;exitDx=0;exitDy=0;" edge="1" parent="2" source="58" target="44">
                    <mxGeometry relative="1" as="geometry"/>
                </mxCell>
            </root>
        </mxGraphModel>
    </diagram>
</mxfile>